<svg viewBox="0 0 36 36" fill="#ffcc4d" width="32" height="32" xmlns="http://www.w3.org/2000/svg" xmlns:xlink="http://www.w3.org/1999/xlink">
    <path d="M20 6.042c0 1.112-0.903 2.014-2 2.014s-2-0.902-2-2.014V2.014C16 0.901 16.903 0 18 0s2 0.901 2 2.014z" />
    <path fill="#ffac33" d="M9.18 36c-0.224 0-0.452-0.052-0.666-0.159-0.736-0.374-1.035-1.28-0.667-2.027l8.94-18.127c0.252-0.512 0.768-0.835 1.333-0.835s1.081 0.323 1.333 0.835l8.941 18.127c0.368 0.747 0.07 1.653-0.666 2.027-0.736 0.372-1.631 0.07-1.999-0.676L18.121 19.74 10.514 35.165C10.252 35.694 9.726 36 9.18 36z" />
    <path fill="#58595b" d="M18.121 20.392c-0.263 0-0.516-0.106-0.702-0.295L3.512 5.998c-0.388-0.394-0.388-1.031 0-1.424s1.017-0.393 1.404 0L18.121 17.96 31.324 4.573c0.389-0.393 1.017-0.393 1.405 0 0.388 0.394 0.388 1.031 0 1.424l-13.905 14.1c-0.187 0.188-0.439 0.295-0.703 0.295z" />
    <path fill="#dd2e44" d="M34.015 19.385c0 8.898-7.115 16.111-15.894 16.111-8.777 0-15.893-7.213-15.893-16.111 0-8.9 7.116-16.113 15.893-16.113 8.778-1e-3 15.894 7.213 15.894 16.113z" />
    <path fill="#e6e7e8" d="M30.041 19.385c0 6.674-5.335 12.084-11.92 12.084-6.583 0-11.919-5.41-11.919-12.084 0-6.675 5.336-12.085 11.919-12.085 6.585-1e-3 11.92 5.41 11.92 12.085z" />
    <path d="M30.04 1.257c-1.646 0-3.135 0.676-4.214 1.77l8.429 8.544C35.333 10.478 36 8.968 36 7.299c0-3.336-2.669-6.042-5.96-6.042zM5.96 1.257c1.645 0 3.135 0.676 4.214 1.77l-8.429 8.544C0.667 10.478 0 8.968 0 7.299 0 3.963 2.668 1.257 5.96 1.257z" />
    <path fill="#414042" d="M23 20h-5c-0.552 0-1-0.447-1-1v-9c0-0.552 0.448-1 1-1s1 0.448 1 1v8h4c0.553 0 1 0.448 1 1 0 0.553-0.447 1-1 1z" />
</svg>