<svg viewBox="0 0 36 36" width="32" height="32" xmlns="http://www.w3.org/2000/svg" xmlns:xlink="http://www.w3.org/1999/xlink">
    <path fill="#e1e8ed" d="M30.415 9.586l-9-9C21.054 0.225 20.553 0 20 0c-1.104 0-1.999 0.896-2 2 0 0.552 0.224 1.053 0.586 1.415l-3.859 3.859 9 9 3.859-3.859C27.948 12.776 28.448 13 29 13c1.104 0 2.001-0.896 2-2 0-0.552-0.224-1.052-0.585-1.414z" />
    <path fill="#ccd6dd" d="M20 0H5C2.791 0 1 1.791 1 4v28c0 2.209 1.791 4 4 4h22c2.209 0 4-1.791 4-4V11h-9c-1 0-2-1-2-2z" />
    <path fill="#99aab5" d="M20 0h-2v9c0 2.209 1.791 4 4 4h9v-2h-9c-1 0-2-1-2-2zM15 8c0 0.552-0.448 1-1 1H6C5.448 9 5 8.552 5 8s0.448-1 1-1h8c0.552 0 1 0.448 1 1zM15 12c0 0.552-0.448 1-1 1H6c-0.552 0-1-0.448-1-1s0.448-1 1-1h8c0.552 0 1 0.448 1 1zM27 16c0 0.552-0.447 1-1 1H6c-0.552 0-1-0.448-1-1s0.448-1 1-1h20c0.553 0 1 0.448 1 1zM27 20c0 0.553-0.447 1-1 1H6c-0.552 0-1-0.447-1-1s0.448-1 1-1h20c0.553 0 1 0.447 1 1zM27 24c0 0.553-0.447 1-1 1H6c-0.552 0-1-0.447-1-1s0.448-1 1-1h20c0.553 0 1 0.447 1 1zM27 28c0 0.553-0.447 1-1 1H6c-0.552 0-1-0.447-1-1s0.448-1 1-1h20c0.553 0 1 0.447 1 1z" />
    <path fill="#66757f" d="M31 19c0 0-5.906-2e-3-5.935 0-0.291 0-0.91 0.174-1.255 0.606l-2.328 2.929c-0.644 0.809-0.644 2.119 0 2.93l2.328 2.929C24.155 28.826 24.774 29 25.065 29c0.019 2e-3 3.547 0 5.935 0z" />
    <path fill="#744eaa" d="M33 19c0 0-8.056-2e-3-8.084 0-0.291 0-0.91 0.139-1.255 0.485l-2.328 2.342c-0.643 0.647-0.643 1.695 0 2.344l2.328 2.342C24.006 26.859 24.625 27 24.916 27 24.944 27.002 33 27 33 27c1.104 0 2-0.897 2-2.001V21c0-1.104-0.896-2-2-2z" />
</svg>